<?xml version="1.0" encoding="utf-8"?>
<!-- Generator: Adobe Illustrator 21.0.0, SVG Export Plug-In . SVG Version: 6.00 Build 0)  -->
<svg version="1.1" id="Layer_1" xmlns="http://www.w3.org/2000/svg" xmlns:xlink="http://www.w3.org/1999/xlink" x="0px" y="0px"
	 width="1400px" height="980px" viewBox="0 0 1400 980" style="enable-background:new 0 0 1400 980;" xml:space="preserve">
<style type="text/css">
	.st0{fill-rule:evenodd;clip-rule:evenodd;fill:#A7DBD7;}
	.st1{fill-rule:evenodd;clip-rule:evenodd;fill:#87C2BA;}
	.st2{fill-rule:evenodd;clip-rule:evenodd;fill:#6BA39C;}
	.st3{fill-rule:evenodd;clip-rule:evenodd;fill:#81C4BB;}
	.st4{fill-rule:evenodd;clip-rule:evenodd;fill:#A0E8DE;}
	.st5{fill-rule:evenodd;clip-rule:evenodd;fill:#62CCBE;}
	.st6{fill-rule:evenodd;clip-rule:evenodd;fill:#97CFC8;}
	.st7{fill-rule:evenodd;clip-rule:evenodd;fill:#7FB8B0;}
	.st8{fill-rule:evenodd;clip-rule:evenodd;fill:none;stroke:#A0E8DE;stroke-width:1.4998;stroke-miterlimit:2.6131;}
	.st9{fill-rule:evenodd;clip-rule:evenodd;fill:#1A9C91;}
	.st10{fill-rule:evenodd;clip-rule:evenodd;fill:#FCD1C0;}
	.st11{fill-rule:evenodd;clip-rule:evenodd;fill:#E6E6E6;}
	.st12{fill-rule:evenodd;clip-rule:evenodd;fill:#FFFFFF;}
	.st13{fill-rule:evenodd;clip-rule:evenodd;fill:#0FBFB0;}
	.st14{fill-rule:evenodd;clip-rule:evenodd;fill:#0AD0BF;}
	.st15{fill-rule:evenodd;clip-rule:evenodd;fill:#FF6600;}
	.st16{fill-rule:evenodd;clip-rule:evenodd;fill:#845939;}
	.st17{fill-rule:evenodd;clip-rule:evenodd;fill:#FF9999;}
	.st18{fill-rule:evenodd;clip-rule:evenodd;fill:#CCCCCC;}
</style>
<g>
	<rect y="0" class="st0" width="1400" height="980"/>
	<rect y="662.6" class="st1" width="1400" height="317.4"/>
	<g>
		<path class="st2" d="M380.2,344.9h-24.9c-8.1,0-15.5,3.3-20.9,8.7c-5.4,5.4-8.7,12.8-8.7,20.9v18.6v11v336.2h12.5V404.1v-11v-1.5
			v-13.3v-3.7c0-4.7,1.9-9,5-12.1c3.1-3.1,7.4-5,12.1-5h24.9c4.7,0,9,1.9,12.1,5c3.1,3.1,5,7.4,5,12.1v3.7v13.3v1.5v11v336.2h12.5
			V404.1v-11v-18.6c0-8.1-3.3-15.5-8.7-20.9C395.8,348.3,388.4,344.9,380.2,344.9z"/>
		<path class="st3" d="M203.6,457.3c0,13.6,11.1,24.7,24.7,24.7h151.6c13.6,0,24.7-11.1,24.7-24.7v-24.7h-201V457.3z"/>
		<path class="st3" d="M203.6,561.9c0,13.6,11.1,24.7,24.7,24.7h151.6c13.6,0,24.7-11.1,24.7-24.7v-24.7h-201V561.9z"/>
		<path class="st3" d="M203.6,666.6c0,13.6,11.1,24.7,24.7,24.7h151.6c13.6,0,24.7-11.1,24.7-24.7v-24.7h-201V666.6z"/>
		<rect x="229.6" y="401.3" class="st4" width="33.9" height="31.2"/>
		<g>
			<rect x="273.1" y="390.5" class="st5" width="26.6" height="42"/>
			<path class="st4" d="M298.4,377.3h-24c-0.7,0-1.3,0.6-1.3,1.3v6.9c0,0.7,0.6,1.3,1.3,1.3h24c0.7,0,1.3-0.6,1.3-1.3v-6.9
				C299.7,377.9,299.1,377.3,298.4,377.3z"/>
			<rect x="275.9" y="386.8" class="st3" width="21" height="3.7"/>
		</g>
		<path class="st6" d="M139.3,457.3c0,13.6,11.1,24.7,24.7,24.7h60.4c13.6,0,24.7-11.1,24.7-24.7v-24.7H139.3V457.3z"/>
		<path class="st6" d="M139.3,561.9c0,13.6,11.1,24.7,24.7,24.7h60.4c13.6,0,24.7-11.1,24.7-24.7v-24.7H139.3V561.9z"/>
		<path class="st6" d="M139.3,666.6c0,13.6,11.1,24.7,24.7,24.7h60.4c13.6,0,24.7-11.1,24.7-24.7v-24.7H139.3V666.6z"/>
		<g>
			<rect x="271.3" y="510.8" class="st5" width="26.6" height="26.4"/>
			<path class="st4" d="M297,502.5h-24.9c-0.4,0-0.8,0.4-0.8,0.8v4.4c0,0.4,0.4,0.8,0.8,0.8H297c0.4,0,0.8-0.4,0.8-0.8v-4.4
				C297.8,502.9,297.5,502.5,297,502.5z"/>
			<rect x="274.1" y="508.5" class="st3" width="21" height="2.3"/>
		</g>
		<g>
			<rect x="236.1" y="510.8" class="st5" width="26.6" height="26.4"/>
			<path class="st4" d="M261.9,502.5h-24.9c-0.4,0-0.8,0.4-0.8,0.8v4.4c0,0.4,0.4,0.8,0.8,0.8h24.9c0.4,0,0.8-0.4,0.8-0.8v-4.4
				C262.7,502.9,262.3,502.5,261.9,502.5z"/>
			<rect x="238.9" y="508.5" class="st3" width="21" height="2.3"/>
		</g>
		<path class="st2" d="M193.8,344.9h-24.9c-8.1,0-15.5,3.3-20.9,8.7c-5.4,5.4-8.7,12.8-8.7,20.9v18.6v11v336.2h12.5V404.1v-11v-1.5
			v-13.3v-3.7c0-4.7,1.9-9,5-12.1c3.1-3.1,7.4-5,12.1-5h24.9c4.7,0,9,1.9,12.1,5c3.1,3.1,5,7.4,5,12.1v3.7v13.3v1.5v11v336.2h12.5
			V404.1v-11v-18.6c0-8.1-3.3-15.5-8.7-20.9C209.3,348.3,201.9,344.9,193.8,344.9z"/>
	</g>
	<g>
		<path class="st2" d="M696.9,344.9H672c-8.1,0-15.5,3.3-20.9,8.7c-5.4,5.4-8.7,12.8-8.7,20.9v18.6v11v336.2h12.5V404.1v-11v-1.5
			v-13.3v-3.7c0-4.7,1.9-9,5-12.1c3.1-3.1,7.4-5,12.1-5h24.9c4.7,0,9,1.9,12.1,5c3.1,3.1,5,7.4,5,12.1v3.7v13.3v1.5v11v336.2h12.5
			V404.1v-11v-18.6c0-8.1-3.3-15.5-8.7-20.9C712.4,348.3,705,344.9,696.9,344.9z"/>
		<path class="st3" d="M520.2,457.3c0,13.6,11.1,24.7,24.7,24.7h151.6c13.6,0,24.7-11.1,24.7-24.7v-24.7h-201V457.3z"/>
		<path class="st3" d="M520.2,561.9c0,13.6,11.1,24.7,24.7,24.7h151.6c13.6,0,24.7-11.1,24.7-24.7v-24.7h-201V561.9z"/>
		<path class="st3" d="M520.2,666.6c0,13.6,11.1,24.7,24.7,24.7h151.6c13.6,0,24.7-11.1,24.7-24.7v-24.7h-201V666.6z"/>
		<rect x="546.3" y="401.3" class="st4" width="33.9" height="31.2"/>
		<g>
			<rect x="589.8" y="390.5" class="st5" width="26.6" height="42"/>
			<path class="st4" d="M615,377.3h-24c-0.7,0-1.3,0.6-1.3,1.3v6.9c0,0.7,0.6,1.3,1.3,1.3h24c0.7,0,1.3-0.6,1.3-1.3v-6.9
				C616.3,377.9,615.8,377.3,615,377.3z"/>
			<rect x="592.6" y="386.8" class="st3" width="21" height="3.7"/>
		</g>
		<path class="st6" d="M455.9,457.3c0,13.6,11.1,24.7,24.7,24.7h60.4c13.6,0,24.7-11.1,24.7-24.7v-24.7H455.9V457.3z"/>
		<path class="st6" d="M455.9,561.9c0,13.6,11.1,24.7,24.7,24.7h60.4c13.6,0,24.7-11.1,24.7-24.7v-24.7H455.9V561.9z"/>
		<path class="st6" d="M455.9,666.6c0,13.6,11.1,24.7,24.7,24.7h60.4c13.6,0,24.7-11.1,24.7-24.7v-24.7H455.9V666.6z"/>
		<g>
			<rect x="587.9" y="510.8" class="st5" width="26.6" height="26.4"/>
			<path class="st4" d="M613.7,502.5h-24.9c-0.4,0-0.8,0.4-0.8,0.8v4.4c0,0.4,0.4,0.8,0.8,0.8h24.9c0.4,0,0.8-0.4,0.8-0.8v-4.4
				C614.5,502.9,614.1,502.5,613.7,502.5z"/>
			<rect x="590.8" y="508.5" class="st3" width="21" height="2.3"/>
		</g>
		<g>
			<rect x="552.8" y="510.8" class="st5" width="26.6" height="26.4"/>
			<path class="st4" d="M578.5,502.5h-24.9c-0.4,0-0.8,0.4-0.8,0.8v4.4c0,0.4,0.4,0.8,0.8,0.8h24.9c0.4,0,0.8-0.4,0.8-0.8v-4.4
				C579.4,502.9,579,502.5,578.5,502.5z"/>
			<rect x="555.6" y="508.5" class="st3" width="21" height="2.3"/>
		</g>
		<path class="st2" d="M510.4,344.9h-24.9c-8.1,0-15.5,3.3-20.9,8.7c-5.4,5.4-8.7,12.8-8.7,20.9v18.6v11v336.2h12.5V404.1v-11v-1.5
			v-13.3v-3.7c0-4.7,1.9-9,5-12.1c3.1-3.1,7.4-5,12.1-5h24.9c4.7,0,9,1.9,12.1,5c3.1,3.1,5,7.4,5,12.1v3.7v13.3v1.5v11v336.2H540
			V404.1v-11v-18.6c0-8.1-3.3-15.5-8.7-20.9C526,348.3,518.6,344.9,510.4,344.9z"/>
	</g>
	<path class="st7" d="M1022.4,789.6H377.6c-27.5,0-50,22.5-50,50c0,27.5,22.5,50,50,50h644.8c27.5,0,50-22.5,50-50
		C1072.4,812.1,1049.9,789.6,1022.4,789.6z"/>
	<g>
		<path class="st2" d="M1159.2,654.8l-146.4-94c-7.5-4.8-17.5-2.6-22.3,4.9c-4.8,7.5-2.6,17.5,4.9,22.3l146.4,94
			c7.5,4.8,17.5,2.6,22.3-4.9l0,0C1168.9,669.6,1166.7,659.6,1159.2,654.8z"/>
		<path class="st2" d="M1166.3,660.6c-3.9-8-13.6-11.4-21.6-7.5l-156.7,75.6c-8,3.9-11.4,13.6-7.5,21.6c3.9,8,13.6,11.4,21.6,7.5
			l156.7-75.6C1166.8,678.3,1170.2,668.6,1166.3,660.6L1166.3,660.6z"/>
		<path class="st2" d="M923.7,738.6v31c0,6,4.9,10.9,10.9,10.9H1400v-52.9H934.6C928.6,727.6,923.7,732.6,923.7,738.6z"/>
		<path class="st5" d="M923.7,484.9v63.4c0,12.3,10.1,22.4,22.4,22.4h454V462.5H946C933.7,462.5,923.7,472.6,923.7,484.9z"/>
		<path class="st3" d="M881.3,511.6v59.2c0,11.5,9.4,20.9,20.9,20.9H1400v-101H902.2C890.7,490.7,881.3,500.1,881.3,511.6z"/>
		<path class="st4" d="M1123.9,415.1H995.3c-13,0-23.7,10.7-23.7,23.7v0c0,13,10.7,23.7,23.7,23.7h128.6c13,0,23.7-10.7,23.7-23.7v0
			C1147.6,425.8,1137,415.1,1123.9,415.1z"/>
		<path class="st6" d="M1021.6,541.2c0,9.9,8.1,18,18,18H1400v-35.9h-360.5C1029.7,523.2,1021.6,531.3,1021.6,541.2z"/>
		<circle class="st1" cx="1148.4" cy="668.6" r="4.7"/>
	</g>
	<rect x="1068.4" y="71.4" class="st3" width="230.2" height="257.3"/>
	<rect x="1083.4" y="86.4" class="st5" width="200.2" height="227.3"/>
	<rect x="729" y="71.4" class="st3" width="230.2" height="257.3"/>
	<rect x="389.5" y="71.4" class="st3" width="230.2" height="257.3"/>
	<rect x="744" y="86.4" class="st5" width="200.2" height="227.3"/>
	<rect x="404.5" y="86.4" class="st5" width="200.2" height="227.3"/>
	<g>
		<g>
			<rect x="438.6" y="556.2" class="st4" width="10" height="281.9"/>
			<rect x="474.6" y="587.1" class="st4" width="10" height="250.9"/>
			<path class="st8" d="M421.7,838.1c0-12.1,9.8-21.9,21.9-21.9c12.1,0,21.9,9.8,21.9,21.9"/>
			<circle class="st9" cx="443.6" cy="837.1" r="5.4"/>
			<circle class="st9" cx="421.8" cy="837.1" r="5.4"/>
			<circle class="st9" cx="465.5" cy="837.1" r="5.4"/>
			<path class="st4" d="M497.3,820.4c-4.5-4.5-10.8-7.3-17.7-7.3c-6.9,0-13.1,2.8-17.7,7.3l0,0c-4.5,4.5-7.3,10.8-7.3,17.7h6.3
				c0-5.2,2.1-9.9,5.5-13.3l0,0c3.4-3.4,8.1-5.5,13.3-5.5c5.2,0,9.9,2.1,13.3,5.5l0,0c3.4,3.4,5.5,8.1,5.5,13.3h6.3
				C504.6,831.2,501.8,824.9,497.3,820.4L497.3,820.4z"/>
			<circle class="st9" cx="479.6" cy="837.1" r="5.4"/>
			<circle class="st9" cx="457.9" cy="837.1" r="5.4"/>
			<circle class="st9" cx="501.5" cy="837.1" r="5.4"/>
		</g>
		<g>
			<path class="st10" d="M956.7,592l-13.2-1.7c-7.7-1-14.8,4.4-15.8,12.1l-1.9,14.2c-1,7.7,4.4,14.8,12.1,15.8l13.2,1.7
				c7.7,1,14.8-4.4,15.8-12.1l1.9-14.2C969.8,600.2,964.3,593.1,956.7,592z"/>
			<path class="st2" d="M807.7,829.6h-46.2c-6.8,0-12.3,5.5-12.3,12.3c0,6.8,5.5,12.3,12.3,12.3h46.2c6.8,0,12.3-5.5,12.3-12.3
				C820,835.1,814.5,829.6,807.7,829.6z"/>
			<path class="st2" d="M961.1,829.6h-46.2c-6.8,0-12.3,5.5-12.3,12.3c0,6.8,5.5,12.3,12.3,12.3h46.2c6.8,0,12.3-5.5,12.3-12.3
				C973.4,835.1,967.9,829.6,961.1,829.6z"/>
			<path class="st11" d="M810.6,365l-54.5,107.6L702.3,496c-11.9,5.2,7,48.6,16.6,44.2l66.3-30.6L847,393.2
				C854.3,365.6,828.5,358,810.6,365z"/>
			<path class="st12" d="M877.1,345.2l-29.4,1.7L810.6,365c0,0-38.8,166.8-18.8,259.4h134.4l-14.6-268.2L877.1,345.2z"/>
			<path class="st12" d="M895.5,434.6c2.1,2.8,49.5,67.2,49.5,67.2l-12.9,89.9c-1.5,10.5,38.4,14.8,38.5,5.4l13-107.8l-71.9-133.1
				C887.6,362.8,884,419.4,895.5,434.6z"/>
			<path class="st13" d="M922.8,716.7L895.2,625l-92.7-0.6l105.8,199.8c4,7.6,6.4,10.7,15.2,10.4l41.9-1.5c6.3-0.2,6.2-4.1,3.4-10.5
				L922.8,716.7z"/>
			<path class="st14" d="M762.5,823.9c-3,9.9-1.7,15.2,7.6,15.5l43.2,1.1c8.5,0.3,13.3-6.1,16.7-14.3l81.7-201.7h-89.1L762.5,823.9z
				"/>
			<polygon class="st11" points="866.4,398.5 863,386.8 875,386.8 877.1,345.2 831.5,428.2 			"/>
			<polygon class="st11" points="829.7,377.2 819.6,382.9 831.5,428.2 847.7,346.9 824,370.7 			"/>
			<polygon class="st15" points="831.5,428.2 877.1,345.2 847.7,346.9 			"/>
			<path class="st10" d="M862.1,216.2h-62.9c-8.3,0-15,6.1-15,13.5v93.8c0,7.4,6.8,13.5,15,13.5c12.5,0,25,0,37.5,0
				c6,0,11,4.5,11,9.9v2.1c-3.4,23,17.2,14.3,29.4-3.8c0-42.4,0-73.1,0-115.5C877.1,222.3,870.4,216.2,862.1,216.2z"/>
			<path class="st16" d="M877.8,214.5c-7.9-51.3-176.4-48.2-93.6,62.1c6.2-49.6,40.6-64.9,83.2-51.1c-28.5,13.2-2.2,45,9.7,61.7
				c0,0,49.7-54.7,34.5-74.5C896.6,192.9,877.8,214.5,877.8,214.5z"/>
			<path class="st16" d="M791.1,260.5c0,0,25-2.3,24.2-4.6C812.5,247.9,796.2,254.2,791.1,260.5z"/>
			<path class="st16" d="M829,255.9c-0.8,2.2,24.2,4.6,24.2,4.6C848.1,254.2,831.8,247.9,829,255.9z"/>
			<ellipse class="st16" cx="802.8" cy="274" rx="3.1" ry="8.5"/>
			<ellipse class="st16" cx="836.5" cy="274" rx="3.1" ry="8.5"/>
			<path class="st17" d="M820.4,278.4l-5.6,4c0,0-2.7,17.6-2.5,18.6c0.2,1,4.4,1.8,6.9,1C821.7,301.2,821.1,278.2,820.4,278.4z"/>
			<path class="st12" d="M812.5,319.4c1.3,4.3,3.7,8.2,8.2,8.2h18.5c4.5,0,8.2-3.7,8.2-8.2v-8.2H810L812.5,319.4z"/>
			<ellipse class="st10" cx="877.1" cy="286.2" rx="14.2" ry="17"/>
			<rect x="857.6" y="544.9" class="st11" width="47.4" height="10.9"/>
			<rect x="788.8" y="543.9" class="st11" width="16.1" height="10.9"/>
			<path class="st10" d="M713.1,507.2c-2.7-7.3-10.8-11-18.1-8.3l-12.5,4.6c-7.3,2.7-11,10.8-8.3,18.1l5,13.4
				c2.7,7.3,10.8,11,18.1,8.3l12.5-4.6c7.3-2.7,11-10.8,8.3-18.1L713.1,507.2z"/>
		</g>
		<path class="st13" d="M630.7,595h-63.5c-4.6,0-8.3,3.8-8.3,8.3v206.3c0,4.6,3.7,8.3,8.3,8.3h63.5c4.6,0,8.3-3.7,8.3-8.3V603.4
			C639,598.8,635.3,595,630.7,595z"/>
		<path class="st14" d="M689,595h-63.5c-50.6,0-47.3,5.7-8.3,73.4v141.1c0,4.6,3.8,8.3,8.3,8.3H689c4.6,0,8.3-3.7,8.3-8.3V603.4
			C697.3,598.8,693.6,595,689,595z"/>
		<path class="st10" d="M458.6,530.5h-13.3c-7.7,0-14.1,6.3-14.1,14.1v14.3c0,7.7,6.3,14.1,14.1,14.1h13.3c7.7,0,14.1-6.3,14.1-14.1
			v-14.3C472.7,536.8,466.4,530.5,458.6,530.5z"/>
		<path class="st13" d="M532.3,420.5L532.3,420.5L532.3,420.5L532.3,420.5l0,0.1v0v0l0,0v0v0v0v0c0,0.5,0,1.5,0,4.3
			c0,67-0.6,89-61.8,91.3c-17.5-1.3-9.2,65.6,2.3,66.4c102-3.8,122.7-46.6,113.9-161.9C583.3,377.2,532.3,376.7,532.3,420.5z"/>
		<path class="st9" d="M482.6,531.9c0.1-5.1,0.6-9.8,1.5-13.6c0.2-1.1,0.5-2,0.8-2.9c-2.8,0.3-5.7,0.6-8.8,0.8l-0.1,0.3
			c-1,4.3-1.5,9.6-1.7,15.3c-0.2,5.6,0.1,11.7,0.6,17.5c1,12.4,3.6,24.7,7.1,33.1c2.5-0.2,4.9-0.4,7.3-0.6c-2.5-5.8-4.9-19.4-6-33.2
			C482.7,542.8,482.5,537.1,482.6,531.9z"/>
		<path class="st14" d="M602.1,363.8H561c-16,0-29.2,13.1-29.2,29.2V595c0,45.6,174,45.6,174,0V489.3
			C705.8,441.5,650,363.8,602.1,363.8z"/>
		<path class="st10" d="M556.5,447c21.6-11.7,36.7-33.2,45.1-65.1l-46.3,6.1L556.5,447z"/>
		<path class="st9" d="M548.8,462.1v-53.3h-6.4v55.4c-3.4,1-6.9,1.7-10.6,2.1v8.4c57.9-6,88.8-74.8,98.3-103.1
			c-2.5-1.3-5-2.5-7.6-3.5C614.9,391.1,591.3,445.8,548.8,462.1z"/>
		<path class="st9" d="M618.8,595.9c-13.5,0-26.9-0.9-39.2-2.6c-21.1-3-39-8.4-47.8-16.1v10.3c11.2,6.7,27.7,11.4,46.3,14
			c12.9,1.8,26.8,2.7,40.6,2.7c13.8,0,27.7-0.9,40.6-2.7c18.7-2.6,35.1-7.3,46.3-14v-10.3c-8.8,7.7-26.7,13.2-47.8,16.1
			C645.7,595,632.3,595.9,618.8,595.9z"/>
		<path class="st13" d="M627.8,451.9L627.8,451.9L627.8,451.9L627.8,451.9l0,0.1v0v0l0,0v0v0v0v0c0,0.5,0,1.5,0,4.3
			c0,57.5-44.6,92.9-95.9,103.2V595c0,12,12.2,20.9,30,26.6c75.1-19.3,127.5-75.1,120.3-169.3C678.8,408.6,627.8,408.1,627.8,451.9z
			"/>
		<path class="st10" d="M491.1,565.9h-13.3c-7.7,0-14.1,6.3-14.1,14.1v14.3c0,7.7,6.3,14.1,14.1,14.1h13.3c7.7,0,14.1-6.3,14.1-14.1
			V580C505.1,572.2,498.8,565.9,491.1,565.9z"/>
		<path class="st14" d="M624.7,441L624.7,441L624.7,441L624.7,441l0,0.1v0v0l0,0v0v0v0v0c0,0.5,0,1.5,0,4.3
			c0,67-60.5,104-121.7,106.2c-17.5-1.3-9.2,65.6,2.3,66.4c102-3.8,182.6-61.6,173.8-176.8C675.7,397.7,624.7,397.1,624.7,441z"/>
		<path class="st9" d="M517,565.3c0.1-5.1,0.6-9.8,1.5-13.6c0.1-0.4,0.2-0.9,0.3-1.3c-2.9,0.4-5.8,0.7-8.7,0.9
			c-0.8,4-1.2,8.7-1.3,13.8c-0.2,5.6,0.1,11.6,0.6,17.5c1.1,13.3,4,26.4,7.8,34.8c2.5-0.2,4.9-0.4,7.4-0.7
			c-2.9-4.5-5.6-19.5-6.9-34.8C517,576.3,516.8,570.5,517,565.3z"/>
		<path class="st18" d="M642.2,300.3c-18.2-0.5-30.5,30.3-30.1,44.6c0.6,18.1,2.5,39.9,25.5,39.9c31.5,0,34.6-55.9,24.5-75.4
			C658.3,302.2,649.5,300.5,642.2,300.3z"/>
		<path class="st10" d="M618.9,300.1c-28.3-32-114.1-28.4-114.1,3c0,15.4-1.8,93.1,9.7,99.9c30,17.7,82.6,12.6,107.5-11.6
			c6.4-6.2,4.8-52.4,4.8-63.2C626.8,315.6,626.7,308.9,618.9,300.1z"/>
		<path class="st18" d="M578.2,249.4c-12.1,2.7-32.2,18.4-33.2,17.3c-19.7-21.2-43.8,8-48.6,31.5c-1.6,8.1,2.6,31,14,19.4
			c4-4.1,34.7-29.1,34.3-34.1c15.2,20.5,55.5,60.4,82.2,64.9c5.5,0.9,8.6-19.2,10.5-26.5C646.5,286.7,623.4,239.5,578.2,249.4z"/>
		<path class="st10" d="M635.7,342.5c-10.6-2.1-17,21-8.5,24c7,2.5,11.7-1,14.1-7.4C643.2,354.1,640.8,343.5,635.7,342.5z"/>
		<path class="st18" d="M532.2,316.4c-5.6-0.7-10.1,0.1-13.1,5.1c-0.7,1.1,15.2-0.6,17-0.8C540.4,320.1,534,316.6,532.2,316.4z"/>
		<path class="st18" d="M571.6,316.4c-5.6-0.7-10,0.1-13.1,5.1c-0.7,1.1,15.2-0.6,17-0.8C579.8,320.1,573.4,316.6,571.6,316.4z"/>
		<path class="st16" d="M529.7,330.9c-0.6,0.3-3.3,2.4-3.4,2.4c-0.1,0-0.4,4.6,3.2,5c1.2,0.1,2.1-0.4,2.3-2c0.1-1,0.3-3.6,0.1-4.6
			C531.3,329,530.4,330.6,529.7,330.9z"/>
		<path class="st16" d="M569.2,330.3c-0.8-0.4-1.8-2.2-2.5,0.9c-0.2,1.1,0,4.2,0.1,5.4c0.2,2,1.3,2.5,2.7,2.4
			c4.2-0.4,3.8-5.8,3.7-5.8C573.1,333.2,569.9,330.7,569.2,330.3z"/>
		<path class="st17" d="M551.4,336.3c-7-1.4-2.5,10.2-10.2,16.4c-2.8,2.3-5.7,2.3-6.3,6.6c-2,15.9,26.2,4.1,19.8-18
			C554.2,339.6,553.4,336.7,551.4,336.3z"/>
		<path class="st12" d="M578.1,374.4c-8.9,0-12.4,6.9-17.8,7.8c-2.6,0.4-12.5-0.7-12.8,3.6c-1.7,7.4,14.5,12.4,26.6,6.8
			C584.6,387.9,586.6,374.4,578.1,374.4z"/>
		<path class="st10" d="M606.9,818h-46.2c-6.8,0-12.3,5.5-12.3,12.3c0,6.8,5.5,12.3,12.3,12.3h46.2c6.8,0,12.3-5.5,12.3-12.3
			C619.2,823.5,613.7,818,606.9,818z"/>
		<path class="st10" d="M678.8,818h-46.2c-6.8,0-12.3,5.5-12.3,12.3c0,6.8,5.5,12.3,12.3,12.3h46.2c6.8,0,12.3-5.5,12.3-12.3
			C691.1,823.5,685.6,818,678.8,818z"/>
		<rect x="617.1" y="793.9" class="st9" width="80.2" height="9.6"/>
		<rect x="558.8" y="793.9" class="st9" width="58.3" height="9.6"/>
	</g>
</g>
</svg>
