{"accessors" : [{"bufferView" : 0, "byteOffset" : 0, "componentType" : 5123, "count" : 146754, "type" : "SCALAR", "max" : [24460], "min" : [0]}, {"bufferView" : 1, "byteOffset" : 0, "componentType" : 5126, "count" : 24461, "type" : "VEC3", "max" : [5.84250020980835, 20.6840991973877, 1.91700005531311], "min" : [-5.84250020980835, -0.0566000007092953, -1.85309994220734]}, {"bufferView" : 1, "byteOffset" : 12, "componentType" : 5126, "count" : 24461, "type" : "VEC3", "max" : [0.999928712844849, 0.999825298786163, 0.99999463558197], "min" : [-0.999932765960693, -0.999930083751678, -1.00000214576721]}], "asset" : {"generator" : "Aspose.3D 20.2.1", "version" : "2.0"}, "buffers" : [{"uri" : "buffer.bin", "byteLength" : 880580}], "bufferViews" : [{"buffer" : 0, "byteOffset" : 0, "byteLength" : 293508, "target" : 34963}, {"buffer" : 0, "byteOffset" : 293512, "byteLength" : 587064, "byteStride" : 24, "target" : 34962}], "materials" : [{"pbrMetallicRoughness" : {"baseColorFactor" : [1, 1, 1, 1], "metallicFactor" : 0, "roughnessFactor" : 0.969947662864829}, "emissiveFactor" : [0, 0, 0], "alphaMode" : "OPAQUE", "doubleSided" : true}], "meshes" : [{"primitives" : [{"attributes" : {"POSITION" : 1, "NORMAL" : 2}, "indices" : 0, "material" : 0, "mode" : 4}]}], "nodes" : [{"mesh" : 0, "name" : "node-0"}], "scene" : 0, "scenes" : [{"nodes" : [0]}]}